<?xml version="1.0" encoding="UTF-8" standalone="no"?>
<!-- Created with Inkscape (http://www.inkscape.org/) -->

<svg
   version="1.1"
   id="svg2"
   xml:space="preserve"
   width="640.9267"
   height="571.93042"
   viewBox="0 0 640.92669 571.93042"
   sodipodi:docname="icon.svg"
   inkscape:version="1.1.2 (0a00cf5339, 2022-02-04)"
   inkscape:export-filename="/home/james.clements/projects/trefoil/handout/icon.png"
   inkscape:export-xdpi="96"
   inkscape:export-ydpi="96"
   xmlns:inkscape="http://www.inkscape.org/namespaces/inkscape"
   xmlns:sodipodi="http://sodipodi.sourceforge.net/DTD/sodipodi-0.dtd"
   xmlns="http://www.w3.org/2000/svg"
   xmlns:svg="http://www.w3.org/2000/svg"><defs
     id="defs6" /><sodipodi:namedview
     id="namedview4"
     pagecolor="#ffffff"
     bordercolor="#666666"
     borderopacity="1.0"
     inkscape:pageshadow="2"
     inkscape:pageopacity="0.0"
     inkscape:pagecheckerboard="0"
     showgrid="false"
     inkscape:zoom="0.87072995"
     inkscape:cx="224.52426"
     inkscape:cy="206.72311"
     inkscape:window-width="1920"
     inkscape:window-height="1043"
     inkscape:window-x="1080"
     inkscape:window-y="598"
     inkscape:window-maximized="1"
     inkscape:current-layer="g12"
     fit-margin-top="0"
     fit-margin-left="0"
     fit-margin-right="0"
     fit-margin-bottom="0" /><g
     id="g8"
     inkscape:groupmode="layer"
     inkscape:label="trefoil"
     transform="matrix(1.3333333,0,0,-1.3333333,-137.19797,617.90198)"><g
       id="g12"
       transform="translate(343.246,198.154)"><g
         id="g16"><path
           d="m 6.6176,11.93098 c 0,0 8.58653,16.99779 11.54004,23.60142 2.95351,6.60362 7.29547,17.33045 9.74687,23.99285 2.45143,6.66242 5.99907,17.39447 7.92136,24.0252 1.9223,6.63072 4.55818,17.26504 5.93318,23.76457 1.37498,6.49951 3.1401,16.80624 3.97684,23.07958 0.83673,6.27338 1.74631,16.17773 2.05383,22.13451 0.30752,5.95681 0.36616,15.24823 0.16264,20.79798 -0.2035,5.54973 -0.95111,14.14409 -1.62953,19.20076 -0.67841,5.05668 -2.1474,12.75764 -3.26006,17.24441 -1.11265,4.48676 -3.25764,11.24405 -4.75926,15.0931 -1.50165,3.84906 -4.23621,9.49572 -6.06351,12.6483 -1.82731,3.15254 -5.02151,7.6624 -7.10658,10.07318 -2.08508,2.41076 -5.65082,5.67378 -7.92135,7.30205 -2.27054,1.62828 -6.05501,3.61482 -8.44315,4.43347 C 6.3808,260.141 2.43333,260.78925 0,260.78925 c -2.43333,0 -6.3808,-0.64825 -8.76892,-1.46689 -2.38814,-0.81865 -6.17261,-2.80519 -8.44315,-4.43347 -2.27053,-1.62827 -5.83627,-4.89129 -7.92135,-7.30205 -2.08507,-2.41078 -5.27927,-6.92064 -7.10658,-10.07318 -1.8273,-3.15258 -4.56186,-8.79924 -6.06351,-12.6483 -1.50162,-3.84905 -3.64661,-10.60634 -4.75926,-15.0931 -1.11266,-4.48677 -2.58165,-12.18773 -3.26006,-17.24441 -0.67842,-5.05667 -1.42603,-13.65103 -1.62953,-19.20076 -0.20352,-5.54975 -0.14488,-14.84117 0.16264,-20.79798 0.30752,-5.95678 1.2171,-15.86113 2.05383,-22.13451 0.83674,-6.27334 2.60186,-16.58007 3.97684,-23.07958 1.375,-6.49953 4.01088,-17.13385 5.93318,-23.76457 1.92229,-6.63073 5.46993,-17.36278 7.92136,-24.0252 2.4514,-6.6624 6.79336,-17.38923 9.74687,-23.99285 2.95351,-6.60363 11.54004,-23.60142 11.54004,-23.60142"
           style="fill:none;stroke:#93dadf;stroke-width:8.96649;stroke-linecap:round;stroke-linejoin:miter;stroke-miterlimit:10;stroke-dasharray:none;stroke-opacity:1"
           id="path18" /></g><g
         id="g20"><path
           d="m -13.65903,-0.22829 c 0,0 -18.98495,-1.08375 -26.1765,-1.82551 -7.19155,-0.74178 -18.65818,-2.3131 -25.65524,-3.52071 -6.99707,-1.20761 -18.07175,-3.53224 -24.77478,-5.18309 -6.70306,-1.65085 -17.21762,-4.65713 -23.53625,-6.7151 -6.31865,-2.05797 -16.1514,-5.702 -22.0042,-8.11733 -5.8528,-2.41536 -14.86868,-6.58148 -20.17866,-9.29075 -5.31,-2.70926 -13.38816,-7.28685 -18.09204,-10.23583 -4.70388,-2.94896 -11.77129,-7.89739 -15.81037,-11.01825 -4.03906,-3.12088 -9.97145,-8.26809 -13.3004,-11.4749 -3.32895,-3.2068 -8.10535,-8.41724 -10.69246,-11.63755 -2.5871,-3.22033 -6.13547,-8.41535 -7.95367,-11.57239 -1.81821,-3.15703 -4.11043,-8.16908 -5.15076,-11.1814 -1.04033,-3.01231 -2.07594,-7.74316 -2.34729,-10.52931 -0.27136,-2.78615 -0.0926,-7.07275 0.39146,-9.55138 0.48399,-2.47862 1.8848,-6.20958 3.09691,-8.31281 1.2121,-2.10326 3.73508,-5.186 5.63921,-6.84595 1.90413,-1.65995 5.53804,-3.96005 8.0845,-5.11791 2.54645,-1.15787 7.13875,-2.6257 10.26867,-3.22724 3.12992,-0.60153 8.64413,-1.10824 12.28965,-1.10824 3.64552,0 9.90059,0.47952 13.98483,1.10824 4.08426,0.62873 11.01018,2.14774 15.45174,3.42321 4.44156,1.27547 11.84251,3.83374 16.55998,5.76955 4.71749,1.9358 12.53293,5.58171 17.4404,8.18248 4.90747,2.60076 12.92691,7.31916 17.92937,10.56213 5.00246,3.24297 13.10889,8.94836 18.12486,12.81094 5.01596,3.86258 13.08319,10.58184 18.02684,15.02796 4.94363,4.44612 12.82271,12.04127 17.60355,17.01658 4.78085,4.97535 12.30783,13.38736 16.85347,18.84214 4.54562,5.45477 11.67031,14.61031 15.90834,20.47216 4.23804,5.86182 14.63646,21.77588 14.63646,21.77588"
           style="fill:none;stroke:#dbc883;stroke-width:8.96649;stroke-linecap:round;stroke-linejoin:miter;stroke-miterlimit:10;stroke-dasharray:none;stroke-opacity:1"
           id="path22" /></g><g
         id="g24"><path
           d="m 7.04141,-11.70267 c 0,0 10.39842,-15.91406 14.63646,-21.77588 4.23803,-5.86185 11.36272,-15.01739 15.90834,-20.47216 4.54564,-5.45478 12.07262,-13.86679 16.85347,-18.84214 4.78084,-4.97531 12.65992,-12.57046 17.60355,-17.01658 4.94365,-4.44612 13.01088,-11.16538 18.02684,-15.02796 5.01597,-3.86258 13.1224,-9.56797 18.12486,-12.81094 5.00246,-3.24297 13.0219,-7.96137 17.92937,-10.56213 4.90747,-2.60077 12.72291,-6.24668 17.4404,-8.18248 4.71747,-1.93581 12.11842,-4.49408 16.55998,-5.76955 4.44156,-1.27547 11.36748,-2.79448 15.45174,-3.42321 4.08424,-0.62872 10.33931,-1.10824 13.98483,-1.10824 3.64552,0 9.15973,0.50671 12.28965,1.10824 3.12992,0.60154 7.72222,2.06937 10.26867,3.22724 2.54646,1.15786 6.18037,3.45796 8.0845,5.11791 1.90413,1.65995 4.42711,4.74269 5.63921,6.84595 1.21211,2.10323 2.61292,5.83419 3.09691,8.31281 0.48401,2.47863 0.66282,6.76523 0.39146,9.55138 -0.27135,2.78615 -1.30696,7.517 -2.34729,10.52931 -1.04033,3.01232 -3.33255,8.02437 -5.15076,11.1814 -1.8182,3.15704 -5.36657,8.35206 -7.95367,11.57239 -2.58711,3.22031 -7.36351,8.43075 -10.69246,11.63755 -3.32895,3.20681 -9.26134,8.35402 -13.3004,11.4749 -4.03908,3.12086 -11.10649,8.06929 -15.81037,11.01825 -4.70388,2.94898 -12.78204,7.52657 -18.09204,10.23583 -5.30998,2.70927 -14.32586,6.87539 -20.17866,9.29075 -5.8528,2.41533 -15.68555,6.05936 -22.0042,8.11733 -6.31863,2.05797 -16.83319,5.06425 -23.53625,6.7151 -6.70303,1.65085 -17.77771,3.97548 -24.77478,5.18309 -6.99706,1.20761 -18.46369,2.77893 -25.65524,3.52071 -7.19155,0.74176 -26.1765,1.82551 -26.1765,1.82551"
           style="fill:none;stroke:#f1b7b7;stroke-width:8.96649;stroke-linecap:round;stroke-linejoin:miter;stroke-miterlimit:10;stroke-dasharray:none;stroke-opacity:1"
           id="path26" /></g><g
         id="g28"><g
           id="g30"><path
             d="m 21.18916,0 c 0,11.70259 -9.48657,21.18916 -21.18916,21.18916 -11.70259,0 -21.18916,-9.48657 -21.18916,-21.18916 0,-11.70259 9.48657,-21.18916 21.18916,-21.18916 11.70259,0 21.18916,9.48657 21.18916,21.18916 z"
             style="fill:#ffffff;fill-opacity:1;fill-rule:nonzero;stroke:#dc8c28;stroke-width:2.98883;stroke-linecap:butt;stroke-linejoin:miter;stroke-miterlimit:10;stroke-dasharray:none;stroke-opacity:1"
             id="path32" /></g><g
           id="g34"
           transform="matrix(1.15,0,0,1.15,-2.178,-5.548)"><g
             id="g36"><g
               id="g38"
               transform="translate(-341.068,-192.606)"><text
                 transform="matrix(1,0,0,-1,341.068,192.606)"
                 style="font-variant:normal;font-weight:bold;font-size:13.6288px;font-family:'Nimbus Sans';-inkscape-font-specification:NimbusSanL-Bold;writing-mode:lr-tb;fill:#000000;fill-opacity:1;fill-rule:nonzero;stroke:none"
                 id="text42"><tspan
                   x="0"
                   y="0"
                   id="tspan40">I</tspan></text><g
                 id="g44"
                 transform="translate(341.068,192.606)" /></g></g><g
             id="g46"
             transform="translate(2.178,5.548)" /></g></g><g
         id="g48"><g
           id="g50"><path
             d="m 53.82037,89.64629 c 0,9.00196 -7.29734,16.29931 -16.29931,16.29931 -9.00197,0 -16.29932,-7.29735 -16.29932,-16.29931 0,-9.00197 7.29735,-16.29932 16.29932,-16.29932 9.00197,0 16.29931,7.29735 16.29931,16.29932 z"
             style="fill:#28b4be;fill-opacity:1;fill-rule:nonzero;stroke:#ffffff;stroke-width:1.49442;stroke-linecap:butt;stroke-linejoin:miter;stroke-miterlimit:10;stroke-dasharray:none;stroke-opacity:1"
             id="path52" /></g><g
           id="g54"
           transform="matrix(1.15,0,0,1.15,34.495,85.675)"><g
             id="g56"><g
               id="g58"
               transform="translate(-377.741,-283.829)"><text
                 transform="matrix(1,0,0,-1,377.741,283.829)"
                 style="font-variant:normal;font-weight:bold;font-size:9.4645px;font-family:'Nimbus Sans';-inkscape-font-specification:NimbusSanL-Bold;writing-mode:lr-tb;fill:#ffffff;fill-opacity:1;fill-rule:nonzero;stroke:none"
                 id="text62"><tspan
                   x="0 2.6311309"
                   y="0"
                   sodipodi:role="line"
                   id="tspan60">ii</tspan></text><g
                 id="g64"
                 transform="translate(377.741,283.829)" /></g></g><g
             id="g66"
             transform="translate(-34.495,-85.675)" /></g></g><g
         id="g68"><g
           id="g70"><path
             d="m 64.41486,165.7967 c 0,9.00198 -7.29735,16.29932 -16.29934,16.29932 -9.00196,0 -16.29931,-7.29734 -16.29931,-16.29932 0,-9.00196 7.29735,-16.29931 16.29931,-16.29931 9.00199,0 16.29934,7.29735 16.29934,16.29931 z"
             style="fill:#28b4be;fill-opacity:1;fill-rule:nonzero;stroke:#ffffff;stroke-width:1.49442;stroke-linecap:butt;stroke-linejoin:miter;stroke-miterlimit:10;stroke-dasharray:none;stroke-opacity:1"
             id="path72" /></g><g
           id="g74"
           transform="matrix(1.15,0,0,1.15,43.577,161.825)"><g
             id="g76"><g
               id="g78"
               transform="translate(-386.823,-359.979)"><text
                 transform="matrix(1,0,0,-1,386.823,359.979)"
                 style="font-variant:normal;font-weight:bold;font-size:9.4645px;font-family:'Nimbus Sans';-inkscape-font-specification:NimbusSanL-Bold;writing-mode:lr-tb;fill:#ffffff;fill-opacity:1;fill-rule:nonzero;stroke:none"
                 id="text82"><tspan
                   x="0 2.6311309 5.2622619"
                   y="0"
                   sodipodi:role="line"
                   id="tspan80">iii</tspan></text><g
                 id="g84"
                 transform="translate(386.823,359.979)" /></g></g><g
             id="g86"
             transform="translate(-43.577,-161.825)" /></g></g><g
         id="g88"><g
           id="g90"><path
             d="m 46.97446,240.12161 c 0,9.00197 -7.29735,16.29932 -16.29932,16.29932 -9.00198,0 -16.29932,-7.29735 -16.29932,-16.29932 0,-9.00197 7.29734,-16.29931 16.29932,-16.29931 9.00197,0 16.29932,7.29734 16.29932,16.29931 z"
             style="fill:#28b4be;fill-opacity:1;fill-rule:nonzero;stroke:#ffffff;stroke-width:1.49442;stroke-linecap:butt;stroke-linejoin:miter;stroke-miterlimit:10;stroke-dasharray:none;stroke-opacity:1"
             id="path92" /></g><g
           id="g94"
           transform="matrix(1.15,0,0,1.15,25.532,236.266)"><g
             id="g96"><g
               id="g98"
               transform="translate(-368.778,-434.42)"><text
                 transform="matrix(1,0,0,-1,368.778,434.42)"
                 style="font-variant:normal;font-weight:bold;font-size:9.4645px;font-family:'Nimbus Sans';-inkscape-font-specification:NimbusSanL-Bold;writing-mode:lr-tb;fill:#ffffff;fill-opacity:1;fill-rule:nonzero;stroke:none"
                 id="text102"><tspan
                   x="0 2.6311309"
                   y="0"
                   sodipodi:role="line"
                   id="tspan100">IV</tspan></text><g
                 id="g104"
                 transform="translate(368.778,434.42)" /></g></g><g
             id="g106"
             transform="translate(-25.532,-236.266)" /></g></g><g
         id="g108"><g
           id="g110"><path
             d="m -14.37582,240.12161 c 0,9.00197 -7.29734,16.29932 -16.29932,16.29932 -9.00197,0 -16.29932,-7.29735 -16.29932,-16.29932 0,-9.00197 7.29735,-16.29931 16.29932,-16.29931 9.00198,0 16.29932,7.29734 16.29932,16.29931 z"
             style="fill:#28b4be;fill-opacity:1;fill-rule:nonzero;stroke:#ffffff;stroke-width:1.49442;stroke-linecap:butt;stroke-linejoin:miter;stroke-miterlimit:10;stroke-dasharray:none;stroke-opacity:1"
             id="path112" /></g><g
           id="g114"
           transform="matrix(1.15,0,0,1.15,-34.304,236.266)"><g
             id="g116"><g
               id="g118"
               transform="translate(-308.942,-434.42)"><text
                 transform="matrix(1,0,0,-1,308.942,434.42)"
                 style="font-variant:normal;font-weight:bold;font-size:9.4645px;font-family:'Nimbus Sans';-inkscape-font-specification:NimbusSanL-Bold;writing-mode:lr-tb;fill:#ffffff;fill-opacity:1;fill-rule:nonzero;stroke:none"
                 id="text122"><tspan
                   x="0"
                   y="0"
                   id="tspan120">V</tspan></text><g
                 id="g124"
                 transform="translate(308.942,434.42)" /></g></g><g
             id="g126"
             transform="translate(34.304,-236.266)" /></g></g><g
         id="g128"><g
           id="g130"><path
             d="m -31.81621,165.7967 c 0,9.00198 -7.29735,16.29932 -16.29931,16.29932 -9.00199,0 -16.29934,-7.29734 -16.29934,-16.29932 0,-9.00196 7.29735,-16.29931 16.29934,-16.29931 9.00196,0 16.29931,7.29735 16.29931,16.29931 z"
             style="fill:#28b4be;fill-opacity:1;fill-rule:nonzero;stroke:#ffffff;stroke-width:1.49442;stroke-linecap:butt;stroke-linejoin:miter;stroke-miterlimit:10;stroke-dasharray:none;stroke-opacity:1"
             id="path132" /></g><g
           id="g134"
           transform="matrix(1.15,0,0,1.15,-52.653,161.825)"><g
             id="g136"><g
               id="g138"
               transform="translate(-290.593,-359.979)"><text
                 transform="matrix(1,0,0,-1,290.593,359.979)"
                 style="font-variant:normal;font-weight:bold;font-size:9.4645px;font-family:'Nimbus Sans';-inkscape-font-specification:NimbusSanL-Bold;writing-mode:lr-tb;fill:#ffffff;fill-opacity:1;fill-rule:nonzero;stroke:none"
                 id="text142"><tspan
                   x="0 5.2622619"
                   y="0"
                   sodipodi:role="line"
                   id="tspan140">vi</tspan></text><g
                 id="g144"
                 transform="translate(290.593,359.979)" /></g></g><g
             id="g146"
             transform="translate(52.653,-161.825)" /></g></g><g
         id="g148"><g
           id="g150"><path
             d="m -21.22174,89.64629 c 0,9.00196 -7.29735,16.29931 -16.29932,16.29931 -9.00197,0 -16.29931,-7.29735 -16.29931,-16.29931 0,-9.00197 7.29734,-16.29932 16.29931,-16.29932 9.00197,0 16.29932,7.29735 16.29932,16.29932 z"
             style="fill:#28b4be;fill-opacity:1;fill-rule:nonzero;stroke:#ffffff;stroke-width:1.49442;stroke-linecap:butt;stroke-linejoin:miter;stroke-miterlimit:10;stroke-dasharray:none;stroke-opacity:1"
             id="path152" /></g><g
           id="g154"
           transform="matrix(1.15,0,0,1.15,-46.186,85.513)"><g
             id="g156"><g
               id="g158"
               transform="translate(-297.06,-283.667)"><text
                 transform="matrix(1,0,0,-1,297.06,283.667)"
                 style="font-variant:normal;font-weight:bold;font-size:9.4645px;font-family:'Nimbus Sans';-inkscape-font-specification:NimbusSanL-Bold;writing-mode:lr-tb;fill:#ffffff;fill-opacity:1;fill-rule:nonzero;stroke:none"
                 id="text162"><tspan
                   x="0 5.2622619 7.893393"
                   y="0"
                   sodipodi:role="line"
                   id="tspan160">vii</tspan></text><text
                 transform="matrix(1,0,0,-1,307.585,287.283)"
                 style="font-variant:normal;font-weight:bold;font-size:6.6251px;font-family:'Nimbus Sans';-inkscape-font-specification:NimbusSanL-Bold;writing-mode:lr-tb;fill:#ffffff;fill-opacity:1;fill-rule:nonzero;stroke:none"
                 id="text166"><tspan
                   x="0"
                   y="0"
                   id="tspan164">o</tspan></text><g
                 id="g168"
                 transform="translate(297.06,283.667)" /></g></g><g
             id="g170"
             transform="translate(46.186,-85.513)" /></g></g><g
         id="g172"><g
           id="g174" /><g
           id="g176"
           transform="matrix(1.15,0,0,1.15,-26.343,119.283)"><g
             id="g178"><g
               id="g180"
               transform="translate(-316.903,-317.437)"><text
                 transform="matrix(1,0,0,-1,316.903,317.437)"
                 style="font-variant:normal;font-weight:bold;font-size:19.6293px;font-family:'Nimbus Sans';-inkscape-font-specification:NimbusSanL-Bold;writing-mode:lr-tb;fill:#209098;fill-opacity:1;fill-rule:nonzero;stroke:none"
                 id="text184"><tspan
                   x="0 10.913891 22.907393 34.900894"
                   y="0"
                   sodipodi:role="line"
                   id="tspan182">2nds</tspan></text><g
                 id="g186"
                 transform="translate(316.903,317.437)" /></g></g><g
             id="g188"
             transform="translate(26.343,-119.283)" /></g></g><g
         id="g308"><g
           id="g310"><path
             d="m -80.09491,-12.32246 c 0,9.00198 -7.29735,16.29931 -16.29932,16.29931 -9.00198,0 -16.29933,-7.29733 -16.29933,-16.29931 0,-9.00197 7.29735,-16.29932 16.29933,-16.29932 9.00197,0 16.29932,7.29735 16.29932,16.29932 z"
             style="fill:#be9b1e;fill-opacity:1;fill-rule:nonzero;stroke:#ffffff;stroke-width:1.49442;stroke-linecap:butt;stroke-linejoin:miter;stroke-miterlimit:10;stroke-dasharray:none;stroke-opacity:1"
             id="path312" /></g><g
           id="g314"
           transform="matrix(1.15,0,0,1.15,-101.535,-16.175)"><g
             id="g316"><g
               id="g318"
               transform="translate(-241.711,-181.979)"><text
                 transform="matrix(1,0,0,-1,241.711,181.979)"
                 style="font-variant:normal;font-weight:bold;font-size:9.4645px;font-family:'Nimbus Sans';-inkscape-font-specification:NimbusSanL-Bold;writing-mode:lr-tb;fill:#ffffff;fill-opacity:1;fill-rule:nonzero;stroke:none"
                 id="text322"><tspan
                   x="0 2.6311309"
                   y="0"
                   sodipodi:role="line"
                   id="tspan320">IV</tspan></text><g
                 id="g324"
                 transform="translate(241.711,181.979)" /></g></g><g
             id="g326"
             transform="translate(101.535,16.175)" /></g></g><g
         id="g328"><g
           id="g330"><path
             d="m -151.3229,-41.23726 c 0,9.00197 -7.29735,16.29932 -16.29932,16.29932 -9.00197,0 -16.29932,-7.29735 -16.29932,-16.29932 0,-9.00197 7.29735,-16.29932 16.29932,-16.29932 9.00197,0 16.29932,7.29735 16.29932,16.29932 z"
             style="fill:#be9b1e;fill-opacity:1;fill-rule:nonzero;stroke:#ffffff;stroke-width:1.49442;stroke-linecap:butt;stroke-linejoin:miter;stroke-miterlimit:10;stroke-dasharray:none;stroke-opacity:1"
             id="path332" /></g><g
           id="g334"
           transform="matrix(1.15,0,0,1.15,-176.285,-45.369)"><g
             id="g336"><g
               id="g338"
               transform="translate(-166.961,-152.785)"><text
                 transform="matrix(1,0,0,-1,166.961,152.785)"
                 style="font-variant:normal;font-weight:bold;font-size:9.4645px;font-family:'Nimbus Sans';-inkscape-font-specification:NimbusSanL-Bold;writing-mode:lr-tb;fill:#ffffff;fill-opacity:1;fill-rule:nonzero;stroke:none"
                 id="text342"><tspan
                   x="0 5.2622619 7.893393"
                   y="0"
                   sodipodi:role="line"
                   id="tspan340">vii</tspan></text><text
                 transform="matrix(1,0,0,-1,177.485,156.401)"
                 style="font-variant:normal;font-weight:bold;font-size:6.6251px;font-family:'Nimbus Sans';-inkscape-font-specification:NimbusSanL-Bold;writing-mode:lr-tb;fill:#ffffff;fill-opacity:1;fill-rule:nonzero;stroke:none"
                 id="text346"><tspan
                   x="0"
                   y="0"
                   id="tspan344">o</tspan></text><g
                 id="g348"
                 transform="translate(166.961,152.785)" /></g></g><g
             id="g350"
             transform="translate(176.285,45.369)" /></g></g><g
         id="g352"><g
           id="g354"><path
             d="m -207.00166,-93.49281 c 0,9.00197 -7.29735,16.29931 -16.29932,16.29931 -9.00198,0 -16.29933,-7.29734 -16.29933,-16.29931 0,-9.00197 7.29735,-16.29932 16.29933,-16.29932 9.00197,0 16.29932,7.29735 16.29932,16.29932 z"
             style="fill:#be9b1e;fill-opacity:1;fill-rule:nonzero;stroke:#ffffff;stroke-width:1.49442;stroke-linecap:butt;stroke-linejoin:miter;stroke-miterlimit:10;stroke-dasharray:none;stroke-opacity:1"
             id="path356" /></g><g
           id="g358"
           transform="matrix(1.15,0,0,1.15,-227.836,-97.461)"><g
             id="g360"><g
               id="g362"
               transform="translate(-115.41,-100.693)"><text
                 transform="matrix(1,0,0,-1,115.41,100.693)"
                 style="font-variant:normal;font-weight:bold;font-size:9.4645px;font-family:'Nimbus Sans';-inkscape-font-specification:NimbusSanL-Bold;writing-mode:lr-tb;fill:#ffffff;fill-opacity:1;fill-rule:nonzero;stroke:none"
                 id="text366"><tspan
                   x="0 2.6311309 5.2622619"
                   y="0"
                   sodipodi:role="line"
                   id="tspan364">iii</tspan></text><g
                 id="g368"
                 transform="translate(115.41,100.693)" /></g></g><g
             id="g370"
             transform="translate(227.836,97.461)" /></g></g><g
         id="g372"><g
           id="g374"><path
             d="m -176.326,-146.62878 c 0,9.00196 -7.29735,16.29931 -16.29932,16.29931 -9.00198,0 -16.29932,-7.29735 -16.29932,-16.29931 0,-9.00199 7.29734,-16.29932 16.29932,-16.29932 9.00197,0 16.29932,7.29733 16.29932,16.29932 z"
             style="fill:#be9b1e;fill-opacity:1;fill-rule:nonzero;stroke:#ffffff;stroke-width:1.49442;stroke-linecap:butt;stroke-linejoin:miter;stroke-miterlimit:10;stroke-dasharray:none;stroke-opacity:1"
             id="path376" /></g><g
           id="g378"
           transform="matrix(1.15,0,0,1.15,-197.161,-150.597)"><g
             id="g380"><g
               id="g382"
               transform="translate(-146.085,-47.557)"><text
                 transform="matrix(1,0,0,-1,146.085,47.557)"
                 style="font-variant:normal;font-weight:bold;font-size:9.4645px;font-family:'Nimbus Sans';-inkscape-font-specification:NimbusSanL-Bold;writing-mode:lr-tb;fill:#ffffff;fill-opacity:1;fill-rule:nonzero;stroke:none"
                 id="text386"><tspan
                   x="0 5.2622619"
                   y="0"
                   sodipodi:role="line"
                   id="tspan384">vi</tspan></text><g
                 id="g388"
                 transform="translate(146.085,47.557)" /></g></g><g
             id="g390"
             transform="translate(197.161,150.597)" /></g></g><g
         id="g392"><g
           id="g394"><path
             d="m -103.20735,-124.5594 c 0,9.00197 -7.29735,16.29931 -16.29932,16.29931 -9.00197,0 -16.29931,-7.29734 -16.29931,-16.29931 0,-9.00199 7.29734,-16.29933 16.29931,-16.29933 9.00197,0 16.29932,7.29734 16.29932,16.29933 z"
             style="fill:#be9b1e;fill-opacity:1;fill-rule:nonzero;stroke:#ffffff;stroke-width:1.49442;stroke-linecap:butt;stroke-linejoin:miter;stroke-miterlimit:10;stroke-dasharray:none;stroke-opacity:1"
             id="path396" /></g><g
           id="g398"
           transform="matrix(1.15,0,0,1.15,-122.531,-128.527)"><g
             id="g400"><g
               id="g402"
               transform="translate(-220.715,-69.627)"><text
                 transform="matrix(1,0,0,-1,220.715,69.627)"
                 style="font-variant:normal;font-weight:bold;font-size:9.4645px;font-family:'Nimbus Sans';-inkscape-font-specification:NimbusSanL-Bold;writing-mode:lr-tb;fill:#ffffff;fill-opacity:1;fill-rule:nonzero;stroke:none"
                 id="text406"><tspan
                   x="0 2.6311309"
                   y="0"
                   sodipodi:role="line"
                   id="tspan404">ii</tspan></text><g
                 id="g408"
                 transform="translate(220.715,69.627)" /></g></g><g
             id="g410"
             transform="translate(122.531,128.527)" /></g></g><g
         id="g412"><g
           id="g414"><path
             d="m -42.57382,-77.29147 c 0,9.00197 -7.29733,16.29931 -16.29932,16.29931 -9.00196,0 -16.29931,-7.29734 -16.29931,-16.29931 0,-9.00197 7.29735,-16.29932 16.29931,-16.29932 9.00199,0 16.29932,7.29735 16.29932,16.29932 z"
             style="fill:#be9b1e;fill-opacity:1;fill-rule:nonzero;stroke:#ffffff;stroke-width:1.49442;stroke-linecap:butt;stroke-linejoin:miter;stroke-miterlimit:10;stroke-dasharray:none;stroke-opacity:1"
             id="path416" /></g><g
           id="g418"
           transform="matrix(1.15,0,0,1.15,-62.502,-81.143)"><g
             id="g420"><g
               id="g422"
               transform="translate(-280.744,-117.011)"><text
                 transform="matrix(1,0,0,-1,280.744,117.011)"
                 style="font-variant:normal;font-weight:bold;font-size:9.4645px;font-family:'Nimbus Sans';-inkscape-font-specification:NimbusSanL-Bold;writing-mode:lr-tb;fill:#ffffff;fill-opacity:1;fill-rule:nonzero;stroke:none"
                 id="text426"><tspan
                   x="0"
                   y="0"
                   id="tspan424">V</tspan></text><g
                 id="g428"
                 transform="translate(280.744,117.011)" /></g></g><g
             id="g430"
             transform="translate(62.502,81.143)" /></g></g><g
         id="g432"><g
           id="g434" /><g
           id="g436"
           transform="matrix(1.15,0,0,1.15,-163.378,-86.085)"><g
             id="g438"><g
               id="g440"
               transform="translate(-179.868,-112.069)"><text
                 transform="matrix(1,0,0,-1,179.868,112.069)"
                 style="font-variant:normal;font-weight:bold;font-size:19.6293px;font-family:'Nimbus Sans';-inkscape-font-specification:NimbusSanL-Bold;writing-mode:lr-tb;fill:#987c18;fill-opacity:1;fill-rule:nonzero;stroke:none"
                 id="text444"><tspan
                   x="0 10.913891 17.450447 29.443951"
                   y="0"
                   sodipodi:role="line"
                   id="tspan442">4ths</tspan></text><g
                 id="g446"
                 transform="translate(179.868,112.069)" /></g></g><g
             id="g448"
             transform="translate(163.378,86.085)" /></g></g><g
         id="g574"><g
           id="g576"><path
             d="m 75.17245,-77.29147 c 0,9.00197 -7.29735,16.29931 -16.29931,16.29931 -9.00199,0 -16.29932,-7.29734 -16.29932,-16.29931 0,-9.00197 7.29733,-16.29932 16.29932,-16.29932 9.00196,0 16.29931,7.29735 16.29931,16.29932 z"
             style="fill:#dc4b4b;fill-opacity:1;fill-rule:nonzero;stroke:#ffffff;stroke-width:1.49442;stroke-linecap:butt;stroke-linejoin:miter;stroke-miterlimit:10;stroke-dasharray:none;stroke-opacity:1"
             id="path578" /></g><g
           id="g580"
           transform="matrix(1.15,0,0,1.15,54.334,-81.26)"><g
             id="g582"><g
               id="g584"
               transform="translate(-397.58,-116.894)"><text
                 transform="matrix(1,0,0,-1,397.58,116.894)"
                 style="font-variant:normal;font-weight:bold;font-size:9.4645px;font-family:'Nimbus Sans';-inkscape-font-specification:NimbusSanL-Bold;writing-mode:lr-tb;fill:#ffffff;fill-opacity:1;fill-rule:nonzero;stroke:none"
                 id="text588"><tspan
                   x="0 2.6311309 5.2622619"
                   y="0"
                   sodipodi:role="line"
                   id="tspan586">iii</tspan></text><g
                 id="g590"
                 transform="translate(397.58,116.894)" /></g></g><g
             id="g592"
             transform="translate(-54.334,81.26)" /></g></g><g
         id="g594"><g
           id="g596"><path
             d="m 135.80598,-124.5594 c 0,9.00197 -7.29734,16.29931 -16.29931,16.29931 -9.00197,0 -16.29932,-7.29734 -16.29932,-16.29931 0,-9.00199 7.29735,-16.29933 16.29932,-16.29933 9.00197,0 16.29931,7.29734 16.29931,16.29933 z"
             style="fill:#dc4b4b;fill-opacity:1;fill-rule:nonzero;stroke:#ffffff;stroke-width:1.49442;stroke-linecap:butt;stroke-linejoin:miter;stroke-miterlimit:10;stroke-dasharray:none;stroke-opacity:1"
             id="path598" /></g><g
           id="g600"
           transform="matrix(1.15,0,0,1.15,115.875,-128.41)"><g
             id="g602"><g
               id="g604"
               transform="translate(-459.121,-69.744)"><text
                 transform="matrix(1,0,0,-1,459.121,69.744)"
                 style="font-variant:normal;font-weight:bold;font-size:9.4645px;font-family:'Nimbus Sans';-inkscape-font-specification:NimbusSanL-Bold;writing-mode:lr-tb;fill:#ffffff;fill-opacity:1;fill-rule:nonzero;stroke:none"
                 id="text608"><tspan
                   x="0"
                   y="0"
                   id="tspan606">V</tspan></text><g
                 id="g610"
                 transform="translate(459.121,69.744)" /></g></g><g
             id="g612"
             transform="translate(-115.875,128.41)" /></g></g><g
         id="g614"><g
           id="g616"><path
             d="m 208.92464,-146.62878 c 0,9.00196 -7.29734,16.29931 -16.29932,16.29931 -9.00197,0 -16.29932,-7.29735 -16.29932,-16.29931 0,-9.00199 7.29735,-16.29932 16.29932,-16.29932 9.00198,0 16.29932,7.29733 16.29932,16.29932 z"
             style="fill:#dc4b4b;fill-opacity:1;fill-rule:nonzero;stroke:#ffffff;stroke-width:1.49442;stroke-linecap:butt;stroke-linejoin:miter;stroke-miterlimit:10;stroke-dasharray:none;stroke-opacity:1"
             id="path618" /></g><g
           id="g620"
           transform="matrix(1.15,0,0,1.15,183.958,-150.759)"><g
             id="g622"><g
               id="g624"
               transform="translate(-527.204,-47.395)"><text
                 transform="matrix(1,0,0,-1,527.204,47.395)"
                 style="font-variant:normal;font-weight:bold;font-size:9.4645px;font-family:'Nimbus Sans';-inkscape-font-specification:NimbusSanL-Bold;writing-mode:lr-tb;fill:#ffffff;fill-opacity:1;fill-rule:nonzero;stroke:none"
                 id="text628"><tspan
                   x="0 5.2622619 7.893393"
                   y="0"
                   sodipodi:role="line"
                   id="tspan626">vii</tspan></text><text
                 transform="matrix(1,0,0,-1,537.728,51.011)"
                 style="font-variant:normal;font-weight:bold;font-size:6.6251px;font-family:'Nimbus Sans';-inkscape-font-specification:NimbusSanL-Bold;writing-mode:lr-tb;fill:#ffffff;fill-opacity:1;fill-rule:nonzero;stroke:none"
                 id="text632"><tspan
                   x="0"
                   y="0"
                   id="tspan630">o</tspan></text><g
                 id="g634"
                 transform="translate(527.204,47.395)" /></g></g><g
             id="g636"
             transform="translate(-183.958,150.759)" /></g></g><g
         id="g638"><g
           id="g640"><path
             d="m 239.60031,-93.49281 c 0,9.00197 -7.29735,16.29931 -16.29933,16.29931 -9.00197,0 -16.29932,-7.29734 -16.29932,-16.29931 0,-9.00197 7.29735,-16.29932 16.29932,-16.29932 9.00198,0 16.29933,7.29735 16.29933,16.29932 z"
             style="fill:#dc4b4b;fill-opacity:1;fill-rule:nonzero;stroke:#ffffff;stroke-width:1.49442;stroke-linecap:butt;stroke-linejoin:miter;stroke-miterlimit:10;stroke-dasharray:none;stroke-opacity:1"
             id="path642" /></g><g
           id="g644"
           transform="matrix(1.15,0,0,1.15,220.273,-97.461)"><g
             id="g646"><g
               id="g648"
               transform="translate(-563.519,-100.693)"><text
                 transform="matrix(1,0,0,-1,563.519,100.693)"
                 style="font-variant:normal;font-weight:bold;font-size:9.4645px;font-family:'Nimbus Sans';-inkscape-font-specification:NimbusSanL-Bold;writing-mode:lr-tb;fill:#ffffff;fill-opacity:1;fill-rule:nonzero;stroke:none"
                 id="text652"><tspan
                   x="0 2.6311309"
                   y="0"
                   sodipodi:role="line"
                   id="tspan650">ii</tspan></text><g
                 id="g654"
                 transform="translate(563.519,100.693)" /></g></g><g
             id="g656"
             transform="translate(-220.273,97.461)" /></g></g><g
         id="g658"><g
           id="g660"><path
             d="m 183.92154,-41.23726 c 0,9.00197 -7.29735,16.29932 -16.29932,16.29932 -9.00197,0 -16.29932,-7.29735 -16.29932,-16.29932 0,-9.00197 7.29735,-16.29932 16.29932,-16.29932 9.00197,0 16.29932,7.29735 16.29932,16.29932 z"
             style="fill:#dc4b4b;fill-opacity:1;fill-rule:nonzero;stroke:#ffffff;stroke-width:1.49442;stroke-linecap:butt;stroke-linejoin:miter;stroke-miterlimit:10;stroke-dasharray:none;stroke-opacity:1"
             id="path662" /></g><g
           id="g664"
           transform="matrix(1.15,0,0,1.15,162.478,-45.089)"><g
             id="g666"><g
               id="g668"
               transform="translate(-505.724,-153.065)"><text
                 transform="matrix(1,0,0,-1,505.724,153.065)"
                 style="font-variant:normal;font-weight:bold;font-size:9.4645px;font-family:'Nimbus Sans';-inkscape-font-specification:NimbusSanL-Bold;writing-mode:lr-tb;fill:#ffffff;fill-opacity:1;fill-rule:nonzero;stroke:none"
                 id="text672"><tspan
                   x="0 2.6311309"
                   y="0"
                   sodipodi:role="line"
                   id="tspan670">IV</tspan></text><g
                 id="g674"
                 transform="translate(505.724,153.065)" /></g></g><g
             id="g676"
             transform="translate(-162.478,45.089)" /></g></g><g
         id="g678"><g
           id="g680"><path
             d="m 112.69356,-12.32246 c 0,9.00198 -7.29735,16.29931 -16.29933,16.29931 -9.00197,0 -16.29932,-7.29733 -16.29932,-16.29931 0,-9.00197 7.29735,-16.29932 16.29932,-16.29932 9.00198,0 16.29933,7.29735 16.29933,16.29932 z"
             style="fill:#dc4b4b;fill-opacity:1;fill-rule:nonzero;stroke:#ffffff;stroke-width:1.49442;stroke-linecap:butt;stroke-linejoin:miter;stroke-miterlimit:10;stroke-dasharray:none;stroke-opacity:1"
             id="path682" /></g><g
           id="g684"
           transform="matrix(1.15,0,0,1.15,91.855,-16.292)"><g
             id="g686"><g
               id="g688"
               transform="translate(-435.101,-181.862)"><text
                 transform="matrix(1,0,0,-1,435.101,181.862)"
                 style="font-variant:normal;font-weight:bold;font-size:9.4645px;font-family:'Nimbus Sans';-inkscape-font-specification:NimbusSanL-Bold;writing-mode:lr-tb;fill:#ffffff;fill-opacity:1;fill-rule:nonzero;stroke:none"
                 id="text692"><tspan
                   x="0 5.2622619"
                   y="0"
                   sodipodi:role="line"
                   id="tspan690">vi</tspan></text><g
                 id="g694"
                 transform="translate(435.101,181.862)" /></g></g><g
             id="g696"
             transform="translate(-91.855,16.292)" /></g></g><g
         id="g698"><g
           id="g700" /><g
           id="g702"
           transform="matrix(1.15,0,0,1.15,116.561,-86.085)"><g
             id="g704"><g
               id="g706"
               transform="translate(-459.807,-112.069)"><text
                 transform="matrix(1,0,0,-1,459.807,112.069)"
                 style="font-variant:normal;font-weight:bold;font-size:19.6293px;font-family:'Nimbus Sans';-inkscape-font-specification:NimbusSanL-Bold;writing-mode:lr-tb;fill:#dc4b4b;fill-opacity:1;fill-rule:nonzero;stroke:none"
                 id="text710"><tspan
                   x="0 10.913891 18.157103 30.150604"
                   y="0"
                   sodipodi:role="line"
                   id="tspan708">3rds</tspan></text><g
                 id="g712"
                 transform="translate(459.807,112.069)" /></g></g><g
             id="g714"
             transform="translate(-116.561,86.085)" /></g></g></g></g></svg>
